<svg preserveAspectRatio="none" width="100%" height="100%" overflow="visible" style="display: block;" viewBox="0 0 249.041 138.139" fill="none" xmlns="http://www.w3.org/2000/svg">
<g id="Illustration">
<path id="Vector" d="M246.164 123.286C245.909 123.096 245.638 122.91 245.36 122.725H245.365L245.31 122.692C244.829 122.374 244.318 122.064 243.768 121.761L72.7242 18.5368L49.4317 36.453L66.5831 125.681H66.7316C69.3983 132.961 108.288 137.151 157.445 137.59C215.382 138.109 259.948 133.576 246.166 123.288L246.164 123.286Z" fill="var(--fill-0, white)"/>
<path id="Vector_2" d="M69.7264 121.666C55.2194 131.726 99.2232 137.577 157.799 138.099C215.736 138.618 260.303 134.084 246.52 123.797C235.359 115.467 194.572 109.675 152.852 109.197C110.8 108.715 82.0588 113.112 69.7264 121.666Z" fill="var(--fill-0, #FFF3A8)"/>
<g id="lamp">
<g id="Vector_3" filter="url(#filter0_f_0_4213)">
<path d="M2.05988 103.056C1.98993 106.459 17.4485 107.681 27.302 107.964C37.1556 108.248 60.678 108.175 56.0218 102.667C52.49 100.468 43.9409 96.9889 27.5564 98.0191C17.714 98.6403 2.12983 99.6544 2.05988 103.056Z" fill="url(#paint0_linear_0_4213)" style="mix-blend-mode:multiply"/>
</g>
<path id="Vector_4" d="M58.0753 105.016C58.04 104.434 57.8726 101.613 57.5702 101.158C57.1774 100.641 54.5507 98.7208 46.9072 96.8077C45.7651 96.4993 43.0576 96.0783 39.9452 96.0894C38.2349 96.0949 35.8097 96.3664 34.7827 96.4771C34.7827 96.4771 29.6258 75.3607 28.8347 71.9665C28.6137 71.0192 28.4002 70.1734 28.1941 69.3535C27.3083 65.8486 26.545 62.8219 25.9601 54.4141C25.1318 42.5051 30.7697 33.6374 34.2052 29.4104C39.117 23.3664 46.6342 19.0119 47.1319 18.7294L47.2025 18.6999L44.3427 14.4175L43.8543 14.6908C43.5089 14.8828 35.3417 19.4884 29.7855 26.3247C23.2377 34.3816 20.0046 44.2187 20.6861 54.0208C21.2952 62.7702 22.0975 65.9501 23.0297 69.6453C23.2321 70.4431 23.4401 71.2703 23.6518 72.1807C24.4485 75.5897 27.8932 89.5817 29.8784 97.6184C29.8784 97.6184 24.1402 99.393 22.3222 101.158C21.9229 101.546 21.8523 104.434 21.8171 105.016C21.8041 105.225 21.8839 105.426 22.025 105.529C22.4596 105.851 25.7038 106.562 32.2851 106.896L32.9369 106.927C34.9703 107.02 37.3009 107.077 39.9471 107.077C51.7317 107.077 57.2916 105.96 57.8692 105.531C58.0103 105.428 58.0901 105.227 58.0771 105.018L58.0753 105.016Z" fill="url(#paint1_linear_0_4213)"/>
<path id="Vector_5" d="M22.2223 101.215C22.2223 101.215 56.6001 100.698 56.9941 101.038C57.388 101.378 57.4194 101.803 57.569 103.513C57.7187 105.224 57.7713 105.432 57.4028 105.653C54.3667 107.08 40.3654 107.152 39.4573 107.152C36.7962 107.152 34.4508 107.094 32.4062 107.002L31.7507 106.971C28.746 106.819 26.4359 106.588 24.7664 106.352C23.8212 106.201 22.3727 106.106 21.6262 105.606L22.2223 101.215Z" fill="url(#paint2_linear_0_4213)"/>
<path id="Vector_6" d="M22.6643 101.739C24.9837 99.8224 30.4322 98.2084 30.4322 98.2084L33.1193 97.4974C33.1193 97.4974 36.9764 96.8031 40.0126 96.8031C43.1435 96.8031 45.8659 97.2149 47.0135 97.5251C54.4472 99.3866 57.0785 101.237 57.6616 101.839C57.5038 102.168 56.6904 102.197 55.0005 102.465C52.1816 102.914 42.241 103.569 34.9095 103.108C27.5799 102.646 22.4248 102.711 22.6643 101.739Z" fill="url(#paint3_linear_0_4213)"/>
<path id="Vector_7" d="M22.4955 53.1254C24.1557 50.3997 25.2718 51.456 25.3479 53.5778C25.9329 61.9856 26.5327 65.1748 27.4185 68.6797C27.6246 69.4978 27.8382 70.3436 28.0591 71.2927C28.8521 74.6869 32.2839 88.6254 34.2616 96.6325L29.2662 97.6057C27.2829 89.569 23.8363 75.577 23.0396 72.168C22.8279 71.2576 22.6181 70.4322 22.4175 69.6326C21.6803 66.7149 21.1678 64.2902 20.6162 60.0651C20.4881 59.0901 20.9783 55.6202 22.4955 53.1272V53.1254Z" fill="url(#paint4_linear_0_4213)"/>
<g id="Group">
<path id="Vector_8" d="M68.633 10.9292C64.7091 9.65688 60.3452 11.9209 57.0174 9.35957C53.97 7.01432 53.7973 6.669 48.7165 0.582434C47.463 -0.918894 43.6079 0.689539 40.8354 3.04771C38.061 5.40589 36.2782 7.8527 37.4277 9.44267C42.0833 15.8912 42.6534 16.6169 44.2838 20.1846C45.9143 23.7524 42.8836 27.2462 43.7174 31.4381C44.4268 35.0059 48.0201 38.3668 48.0201 38.3668L59.8939 26.6295L75.0342 17.4996C75.0342 17.4996 71.9849 12.0151 68.6367 10.9292H68.633Z" fill="url(#paint5_radial_0_4213)"/>
<path id="Vector_9" d="M64.4953 31.5181C59.2975 35.5845 53.2492 38.8069 49.9586 38.9823C45.3662 39.2722 46.5881 33.6012 56.0496 25.5368C66.408 16.4661 75.4053 14.2852 75.1249 18.6414C74.9317 21.6312 70.0403 27.1804 64.4953 31.52V31.5181Z" fill="url(#paint6_linear_0_4213)"/>
<path id="Vector_10" d="M63.4042 30.383C58.9176 33.8842 53.8405 36.8426 51.2314 37.2839C47.6325 37.8933 49.3224 33.7236 57.263 27.0572C66.2454 19.5154 73.6586 16.6033 73.0198 19.8497C72.5815 22.0786 68.1916 26.6491 63.406 30.383H63.4042Z" fill="var(--fill-0, #FDE65E)"/>
</g>
</g>
<path id="Union" d="M49.585 36.9533C48.77 35.7998 51.1858 32.1598 57.2637 27.0572C65.0068 20.556 71.5838 17.495 72.8421 18.8537L243.886 122.078C244.436 122.381 244.947 122.691 245.428 123.008L245.483 123.042H245.478C245.756 123.226 246.028 123.413 246.282 123.603L246.284 123.605C260.067 133.893 215.5 138.426 157.563 137.907C108.406 137.468 69.5163 133.278 66.8497 125.998H66.7011L49.585 36.9533Z" fill="url(#paint7_linear_0_4213)"/>
<path id="Union_2" d="M49.5854 36.9539C48.7692 35.801 51.1848 32.1607 57.2637 27.0572C65.0068 20.556 71.5838 17.495 72.8421 18.8536L244.28 122.303C244.596 122.484 244.904 122.669 245.196 122.855L245.203 122.859C245.584 123.103 245.944 123.35 246.282 123.603H246.284C260.067 133.891 215.5 138.424 157.563 137.905C106.722 137.451 66.8608 132.986 66.703 125.235L49.5854 36.9539Z" fill="url(#paint8_linear_0_4213)"/>
</g>
<defs>
<filter id="filter0_f_0_4213" x="0" y="95.7732" width="58.6845" height="14.3395" filterUnits="userSpaceOnUse" color-interpolation-filters="sRGB">
<feFlood flood-opacity="0" result="BackgroundImageFix"/>
<feBlend mode="normal" in="SourceGraphic" in2="BackgroundImageFix" result="shape"/>
<feGaussianBlur stdDeviation="1.02982" result="effect1_foregroundBlur_0_4213"/>
</filter>
<linearGradient id="paint0_linear_0_4213" x1="2.05952" y1="101.914" x2="19.1304" y2="121.37" gradientUnits="userSpaceOnUse">
<stop offset="0.075825" stop-opacity="0"/>
<stop offset="0.49375" stop-opacity="0.2"/>
<stop offset="1" stop-opacity="0.3"/>
</linearGradient>
<linearGradient id="paint1_linear_0_4213" x1="31.4958" y1="76.7475" x2="69.4626" y2="42.096" gradientUnits="userSpaceOnUse">
<stop offset="0.71" stop-color="#1C98E8"/>
<stop offset="0.74" stop-color="#0057AE"/>
<stop offset="0.93" stop-color="#0057AE"/>
</linearGradient>
<linearGradient id="paint2_linear_0_4213" x1="21.6596" y1="103.931" x2="57.0253" y2="102.595" gradientUnits="userSpaceOnUse">
<stop offset="0.01" stop-color="#0057AE" stop-opacity="0"/>
<stop offset="0.24182" stop-color="#0057AE"/>
<stop offset="0.365392" stop-color="#1C98E8"/>
<stop offset="0.727768" stop-color="#1C98E8"/>
<stop offset="0.916342" stop-color="#FFF3A8"/>
</linearGradient>
<linearGradient id="paint3_linear_0_4213" x1="34.345" y1="99.4654" x2="58.3475" y2="100.065" gradientUnits="userSpaceOnUse">
<stop offset="0.03" stop-color="#1A93E5"/>
<stop offset="0.399827" stop-color="#6FC9D3"/>
<stop offset="0.845754" stop-color="#FFF3A8"/>
</linearGradient>
<linearGradient id="paint4_linear_0_4213" x1="31.8189" y1="96.8578" x2="34.921" y2="55.9532" gradientUnits="userSpaceOnUse">
<stop offset="0.03" stop-color="#1A93E5"/>
<stop offset="0.5" stop-color="#6FC9D3"/>
<stop offset="1" stop-color="#FFF3A8"/>
</linearGradient>
<radialGradient id="paint5_radial_0_4213" cx="0" cy="0" r="1" gradientUnits="userSpaceOnUse" gradientTransform="translate(61.6228 28.0736) rotate(-128.879) scale(33.2949 98.6127)">
<stop offset="0.177586" stop-color="#1C98E8"/>
<stop offset="0.487797" stop-color="#0057AE"/>
<stop offset="0.526286" stop-color="#0057AE"/>
</radialGradient>
<linearGradient id="paint6_linear_0_4213" x1="62.6129" y1="22.1094" x2="67.8438" y2="29.4715" gradientUnits="userSpaceOnUse">
<stop stop-color="#6FC9D3"/>
<stop offset="1" stop-color="#9ECFFF"/>
</linearGradient>
<linearGradient id="paint7_linear_0_4213" x1="155.765" y1="78.8435" x2="51.6174" y2="88.2789" gradientUnits="userSpaceOnUse">
<stop offset="0.310058" stop-color="#FCF8E8" stop-opacity="0"/>
<stop offset="0.925763" stop-color="#FFF3A8"/>
</linearGradient>
<linearGradient id="paint8_linear_0_4213" x1="152.632" y1="67.449" x2="117.341" y2="131.575" gradientUnits="userSpaceOnUse">
<stop stop-color="#FFF3A8"/>
<stop offset="0.687138" stop-color="#FCF8E8" stop-opacity="0"/>
</linearGradient>
</defs>
</svg>
